PathFileType	4	(X/Y/Z)	RBDS020\RBDS020runT25.trc
DataRate	CameraRate	NumFrames	NumMarkers	Units	OrigDataRate	OrigDataStartFrame	OrigNumFrames
150.000000	150.000000	4	33	mm	150.000000	562	4500
Frame#	Time	L.ASIS			L.Heel.Bottom			L.Heel.Lateral			L.Heel.Top			L.Iliac.Crest			L.MT1			L.MT5			L.PSIS			L.Shank.Bottom.Lateral			L.Shank.Bottom.Medial			L.Shank.Top.Lateral			L.Shank.Top.Medial			L.Thigh.Bottom.Lateral			L.Thigh.Bottom.Medial			L.Thigh.Top.Lateral			L.Thigh.Top.Medial			R.ASIS			R.ASY			R.Heel.Bottom			R.Heel.Lateral			R.Heel.Top			R.Iliac.Crest			R.MT1			R.MT5			R.PSIS			R.Shank.Bottom.Lateral			R.Shank.Bottom.Medial			R.Shank.Top.Lateral			R.Shank.Top.Medial			R.Thigh.Bottom.Lateral			R.Thigh.Bottom.Medial			R.Thigh.Top.Lateral			R.Thigh.Top.Medial			
		X1	Y1	Z1	X2	Y2	Z2	X3	Y3	Z3	X4	Y4	Z4	X5	Y5	Z5	X6	Y6	Z6	X7	Y7	Z7	X8	Y8	Z8	X9	Y9	Z9	X10	Y10	Z10	X11	Y11	Z11	X12	Y12	Z12	X13	Y13	Z13	X14	Y14	Z14	X15	Y15	Z15	X16	Y16	Z16	X17	Y17	Z17	X18	Y18	Z18	X19	Y19	Z19	X20	Y20	Z20	X21	Y21	Z21	X22	Y22	Z22	X23	Y23	Z23	X24	Y24	Z24	X25	Y25	Z25	X26	Y26	Z26	X27	Y27	Z27	X28	Y28	Z28	X29	Y29	Z29	X30	Y30	Z30	X31	Y31	Z31	X32	Y32	Z32	X33	Y33	Z33	

563	3.746666666666667	2319.618984203159	992.9367560707454	893.0232256638941	2123.951053953895	30.09460838205378	977.349158314657	2147.172183228767	51.88706574216602	932.8961594625334	2133.847834175389	77.60480238535241	976.7956357353465	2253.81180300151	1024.803484032434	857.5885138663186	2345.88053512247	51.21388845173369	1000.402896944197	2305.064162254585	40.38363512053525	896.0798790045719	2153.884823980233	1010.868669515424	962.3991798041543	2237.262152134098	158.8320482637403	906.5224338024503	2196.712257835908	180.9611815530299	937.3737693144703	2260.887249732827	233.3628657445052	886.0799275923669	2223.044498704938	255.3652820771926	917.3561577154425	2327.655129785612	648.2557397225443	833.9865181763497	2265.444488314324	627.1591681980387	865.2686640466853	2286.510595347346	749.250192541406	822.1158654322753	2229.004893744745	730.1638965060068	856.3508945665726	2317.313202212963	970.228891761538	1127.795354922913	2005.764068256235	203.0657810129902	1110.412086624911	1882.019069138616	350.0640196918098	1069.847927860643	1905.845756002314	340.8812556836847	1117.68032768641	1923.295738461407	359.8049212522841	1069.683538985925	2261.682235167637	1013.08148521538	1159.092544707897	1980.594150712911	159.9448634533509	1068.965040075688	1958.672976004967	192.9078660503771	1171.394231180806	2156.275414651327	1004.12087852229	1058.732378907077	2054.339225081116	352.0736025253231	1140.566904408121	2044.083193496159	389.1259741049823	1106.627989953113	2130.239635973145	387.5561180885675	1153.37891694118	2115.017360848897	425.7287739949253	1119.641398167998	2305.307647331444	589.5150322370682	1167.012544859011	2256.388158622748	572.0443334267568	1118.322353892805	2263.152557029265	691.5419148060622	1172.362274783981	2216.269965568161	674.5008975822809	1125.821765491268	
564	3.753333333333333	2317.830087253502	992.4245938987954	892.8580646567946	2107.105085504566	30.22022113116111	977.3326518927076	2130.371450940715	51.96443180114355	932.8902732020474	2117.054099870346	77.73064153060817	976.7603338690171	2252.234652932021	1024.524531717971	857.7012406225821	2329.056268183903	50.99189518833241	1000.287407023014	2288.200083045257	40.1738286990176	896.1349583409863	2152.732577431183	1011.171155441625	962.7670182237787	2221.716924820596	158.3565687479153	906.5564761221801	2181.563838809783	181.0998309989641	937.4952973084872	2246.652965929738	232.4644088227946	886.2905917935557	2209.068974724451	255.0409603380961	917.493894343964	2320.577574771942	646.3270907313389	834.1974650054566	2257.901028498459	626.4872743632358	865.3380623407156	2281.462480011586	748.1541898552071	822.3897679605799	2223.635143092977	730.2463701087157	856.7432197005618	2316.361550310893	970.7860408578408	1127.555978937044	2021.480778702207	200.405519846126	1110.129682080447	1892.705654497862	343.7269738235272	1072.209681774171	1917.39577301829	334.914913380083	1119.69755736531	1933.561537673746	354.8791444443788	1071.582856133379	2260.23529676879	1013.604654997913	1159.38767566683	1997.054446656615	156.7269168212178	1068.767656677029	1975.56703901225	188.3809419969502	1171.765503770041	2155.216292860262	1004.669033111017	1059.193733207664	2066.259493083863	349.6770945542692	1140.898783249966	2055.073320334779	386.7247494535124	1107.231261694475	2141.617148008672	386.4336480637871	1153.2667910561	2125.456970893193	424.50158066965	1119.817983782854	2312.141970891476	590.9806603729776	1166.251799903818	2263.243470073457	572.2811812851228	1117.886527510247	2267.376851180498	691.8999040384911	1172.088453100566	2220.572800990926	673.6531115778328	1125.904568349372	
565	3.76	2316.078197373714	992.2027262366676	892.5766474807303	2090.220419523673	30.4572383090689	977.3317348225391	2113.54714212096	52.13500405872789	932.9108999043652	2100.264464361253	77.95708360818223	976.7531731971361	2250.835774714325	1024.713882178042	857.7758706737684	2312.212572117926	50.70348818658185	1000.264597587501	2271.317467492378	39.95567571929246	896.2686006272666	2151.741040105419	1011.990635517495	963.1588598005933	2206.046473490822	158.089583590341	906.6972744691249	2166.232758734632	181.3527626912088	937.7226658722929	2232.113770817149	231.8135885550126	886.6135779649404	2194.739652019143	254.8785229709392	917.7586442132877	2313.126440173161	644.7712851348904	834.5511146491236	2249.947651541684	626.2630306099408	865.4717164894904	2276.174678624951	747.4363241583574	822.7571293453663	2217.985623656788	730.7784778806264	857.1574236376002	2315.709348801478	971.8705089783246	1127.139121596824	2037.56199334544	197.2123407525028	1109.773048146128	1903.642347892798	336.3438188880389	1074.425831152436	1929.09087080211	327.9556692667103	1121.57325226012	1944.03538421987	348.9749229656323	1073.415431943075	2259.473655234924	1014.874709452557	1159.588997076276	2014.083526066629	152.9354067824827	1068.454966404253	1992.817136636429	183.2116464455517	1171.974026034432	2154.398528340659	1005.843930870149	1059.707616659414	2078.147774706865	346.8656114363903	1141.204306196158	2065.918884095051	383.8012407659173	1107.762915559818	2152.809576928646	385.162786022024	1153.121877370209	2135.591417666514	423.0028180066327	1119.920355422219	2318.77357185875	593.1257393664549	1165.586579768077	2269.884247758326	573.2499657955964	1117.56721347612	2271.531058409203	692.9174982972446	1171.936396507503	2224.797098517106	673.5060138474745	1126.134755085602	
566	3.766666666666667	2314.383451319751	992.2854292649265	892.1761331920094	2073.321864103898	30.87370936567594	977.3292189940735	2096.720031244322	52.45833819183073	932.9335709263269	2083.506162495988	78.35086363155355	976.7468468412579	2249.587131261786	1025.347326702973	857.8281768900507	2295.355598085062	50.40586562747407	1000.313458363247	2254.419666891243	39.77048372006561	896.460608671762	2150.885033337886	1013.264398763464	963.5940126441494	2190.303884315471	158.1101383503207	906.9188722309905	2150.763919863758	181.8126654237043	938.0154011805749	2217.343323824717	231.4936430085718	887.0208494606612	2180.128158753747	254.9745093759129	918.1134185889534	2305.394986220745	643.6500478348988	835.0522036391319	2241.710398268859	626.5397413547037	865.7189768021792	2270.712698318499	747.1342475810617	823.2167281398216	2212.144816931323	731.785067078891	857.6096386493282	2315.325714073565	973.4521743304223	1126.569658592001	2053.987514922157	193.5307447637499	1109.340485523678	1914.861390109253	327.9408875799655	1076.469216851933	1940.979629866011	320.0435695084122	1123.279972601024	1954.750919966789	342.0956637606201	1075.139351738143	2259.318532164646	1016.810270165019	1159.713594132014	2031.649808442562	148.6274156805238	1068.041249435478	2010.433842043941	177.4809259064649	1172.034733277518	2153.793640585533	1007.559810629515	1060.279867054268	2090.002210321999	343.6253131165473	1141.473102086332	2076.621494015549	380.3461728954536	1108.223891907484	2163.804718966229	383.7112671158665	1152.949065858443	2145.411967399541	421.2014206888401	1119.965713844296	2325.18366476418	595.9201620539023	1165.043093285283	2276.289863713253	574.9228699369797	1117.395202506182	2275.619071527764	694.5773854699004	1171.9249636321	2228.92591336444	674.0433321417333	1126.550670880713	
